<mxfile host="65bd71144e">
    <diagram id="NcrnIpITPlkzuJ2Ueax9" name="Page-1">
        <mxGraphModel dx="1759" dy="519" grid="1" gridSize="10" guides="1" tooltips="1" connect="1" arrows="1" fold="1" page="1" pageScale="1" pageWidth="827" pageHeight="1169" math="0" shadow="0">
            <root>
                <mxCell id="0"/>
                <mxCell id="1" parent="0"/>
                <mxCell id="43" value="" style="rounded=0;whiteSpace=wrap;html=1;sketch=0;fillColor=#d80073;fontColor=#ffffff;strokeColor=#A50040;" vertex="1" parent="1">
                    <mxGeometry x="-50" y="20" width="920" height="450" as="geometry"/>
                </mxCell>
                <mxCell id="2" value="" style="shape=image;verticalLabelPosition=bottom;labelBackgroundColor=#ffffff;verticalAlign=top;aspect=fixed;imageAspect=0;image=data:image/png,iVBORw0KGgoAAAANSUhEUgAAAtUAAAB4CAYAAAA9rg5yAAAACXBIWXMAAAsTAAALEwEAmpwYAAAGtWlUWHRYTUw6Y29tLmFkb2JlLnhtcAAAAAAAPD94cGFja2V0IGJlZ2luPSLvu78iIGlkPSJXNU0wTXBDZWhpSHpyZVN6TlRjemtjOWQiPz4gPHg6eG1wbWV0YSB4bWxuczp4PSJhZG9iZTpuczptZXRhLyIgeDp4bXB0az0iQWRvYmUgWE1QIENvcmUgNi4wLWMwMDIgNzkuMTY0NDg4LCAyMDIwLzA3LzEwLTIyOjA2OjUzICAgICAgICAiPiA8cmRmOlJERiB4bWxuczpyZGY9Imh0dHA6Ly93d3cudzMub3JnLzE5OTkvMDIvMjItcmRmLXN5bnRheC1ucyMiPiA8cmRmOkRlc2NyaXB0aW9uIHJkZjphYm91dD0iIiB4bWxuczp4bXA9Imh0dHA6Ly9ucy5hZG9iZS5jb20veGFwLzEuMC8iIHhtbG5zOnhtcE1NPSJodHRwOi8vbnMuYWRvYmUuY29tL3hhcC8xLjAvbW0vIiB4bWxuczpzdEV2dD0iaHR0cDovL25zLmFkb2JlLmNvbS94YXAvMS4wL3NUeXBlL1Jlc291cmNlRXZlbnQjIiB4bWxuczpkYz0iaHR0cDovL3B1cmwub3JnL2RjL2VsZW1lbnRzLzEuMS8iIHhtbG5zOnBob3Rvc2hvcD0iaHR0cDovL25zLmFkb2JlLmNvbS9waG90b3Nob3AvMS4wLyIgeG1wOkNyZWF0b3JUb29sPSJBZG9iZSBQaG90b3Nob3AgMjIuMCAoV2luZG93cykiIHhtcDpDcmVhdGVEYXRlPSIyMDIxLTA3LTA1VDE2OjAzOjE1KzAyOjAwIiB4bXA6TWV0YWRhdGFEYXRlPSIyMDIxLTA3LTA3VDEwOjEzKzAyOjAwIiB4bXA6TW9kaWZ5RGF0ZT0iMjAyMS0wNy0wN1QxMDoxMyswMjowMCIgeG1wTU06SW5zdGFuY2VJRD0ieG1wLmlpZDo5NGIwYmViYy03NjllLTcyNGUtYjc5MC1hMTg5MDU0NjRkMDEiIHhtcE1NOkRvY3VtZW50SUQ9ImFkb2JlOmRvY2lkOnBob3Rvc2hvcDo3MjY5NjljNy1lM2Y1LTFjNDQtOTAwYS0xYjA4NWE0YzJkYjgiIHhtcE1NOk9yaWdpbmFsRG9jdW1lbnRJRD0ieG1wLmRpZDo2YWM3YTE5ZC0xYjRhLTc5NDQtYTRhOS1mNzhiNmI4ZDQ5MDkiIGRjOmZvcm1hdD0iaW1hZ2UvcG5nIiBwaG90b3Nob3A6Q29sb3JNb2RlPSIzIiBwaG90b3Nob3A6SUNDUHJvZmlsZT0ic1JHQiBJRUM2MTk2Ni0yLjEiPiA8eG1wTU06SGlzdG9yeT4gPHJkZjpTZXE+IDxyZGY6bGkgc3RFdnQ6YWN0aW9uPSJjcmVhdGVkIiBzdEV2dDppbnN0YW5jZUlEPSJ4bXAuaWlkOjZhYzdhMTlkLTFiNGEtNzk0NC1hNGE5LWY3OGI2YjhkNDkwOSIgc3RFdnQ6d2hlbj0iMjAyMS0wNy0wNVQxNjowMzoxNSswMjowMCIgc3RFdnQ6c29mdHdhcmVBZ2VudD0iQWRvYmUgUGhvdG9zaG9wIDIyLjAgKFdpbmRvd3MpIi8+IDxyZGY6bGkgc3RFdnQ6YWN0aW9uPSJzYXZlZCIgc3RFdnQ6aW5zdGFuY2VJRD0ieG1wLmlpZDo4NzlhZDFkYy0wOTQ1LTE5NDktYTRhMC00NDRkMjQ0NTg4NTYiIHN0RXZ0OndoZW49IjIwMjEtMDctMDVUMTY6MDM6MTUrMDI6MDAiIHN0RXZ0OnNvZnR3YXJlQWdlbnQ9IkFkb2JlIFBob3Rvc2hvcCAyMi4wIChXaW5kb3dzKSIgc3RFdnQ6Y2hhbmdlZD0iLyIvPiA8cmRmOmxpIHN0RXZ0OmFjdGlvbj0ic2F2ZWQiIHN0RXZ0Omluc3RhbmNlSUQ9InhtcC5paWQ6OTRiMGJlYmMtNzY5ZS03MjRlLWI3OTAtYTE4OTA1NDY0ZDAxIiBzdEV2dDp3aGVuPSIyMDIxLTA3LTA3VDEwOjEzKzAyOjAwIiBzdEV2dDpzb2Z0d2FyZUFnZW50PSJBZG9iZSBQaG90b3Nob3AgMjIuMCAoV2luZG93cykiIHN0RXZ0OmNoYW5nZWQ9Ii8iLz4gPC9yZGY6U2VxPiA8L3htcE1NOkhpc3Rvcnk+IDwvcmRmOkRlc2NyaXB0aW9uPiA8L3JkZjpSREY+IDwveDp4bXBtZXRhPiA8P3hwYWNrZXQgZW5kPSJyIj8+A1TxJAAAKiNJREFUeJztnXe4HVX1ht/kJoFAIKFHICRAKFIkGLoiXUC6PwtKEURFelPAgoAgCIh0pUiTjoAUEUWF0JtA6GACCSU0KUlIgJD2++M7x3vv4ZTZe2bOmXvP9z7PfSBnZpc7d87M2muv9a0+c+fOxRhjjDHGGBNP31ZPwBhjjDHGmJ6OjWpjjDHGGGNSYqPaGGOMMcaYlNioNsYYY4wxJiU2qo0xxhhjjEmJjWpjjDHGGGNSYqPaGGOMMcaYlNioNsYYY4wxJiU2qo0xxhhjjEmJjWpjjDHGGGNS0q/RCavueXFMvx3AYkB/4H1gWkwnxhhjjDHGtJJnLt4z0Xl5eKqHAi8AbwCvAB8AB+YwjjHGGGOMMYUgD6P6KGD5is9OARbPYSxjjDHGGGNaTh5G9epVPhsA7JrDWMYYY4wxxrScPIzq8TU+3yOHsYwxxhhjjGk5eRjVV9b4fHVgVA7jGWOMMcYY01LyMKrvAF6rcWyPHMYzxhhjjDGmpeRhVM8BLqtxbBcks2eMMcYYY0yvIa/iL5fU+HxRYJucxjTGGGOMMaYl5GVU/wd4qMaxPXIa0xhjjDHGmJaQZ5nyS2t8vjUwT47jGmOMMcYY01SSGtV9UDz0hcCpVNeiruRq4JMqnw8AFkw4rjHGGGOMMYUnqVF9OnA58F3gUOBJ4K/AZnXavA9cUeXzJ4D/Jp+iMcYYY4wxxSaJUd0BHFDl862BfwKPAjsD/aqcczhwX5d/T0Qeb2OMMcYYY3oNSY3qPnWOfx64ClVS3Ld0fpl3gC8CqwHrASsBz0TN1BhjjDHGmIJSzbtcySwUGz2gwXnDgXOQkf29imM2pI0xPYkF6O4gSMsUYG6G/Zn2ZSUUejkaWBlYGhhc+gH4ADm0XgGeAsaisMsngJlNnqsxbUUSo3oO8CPgDOp7rMvsBRwNTEoxL2OMaSX3AGtk2N9CwOQM+zPtxRDgB+j9umKDcxco/SwLbNTl81WA5/KYnDFGJE1UPAutiq8CZic4f6noGRljjDEGtFtyGMpHOonGBnU9XsliQsaY2oToVD8OfBsYCZwJTK9x3mTg2XTTMsYYY9qaJYF7gd/QGdoRy2Rqv7ONMRmRJPyjkonAQcCxwD5IGWSJ0rGPgT2BaQn6GQDMFzG+CeMjYEarJ2GMMSYxI4E7Ubx0FthLbUwTiDGqy7wH/AqtojcDBgF3A282aLcYKiKzLclitE167gR2B15rwdgLIn3zZvA4cFeTxjJwcAvH/rj0Mx3d15NK/53TwjkZkwVDydaghtY8+41pO9IY1WVmoEIwSbkS2DyDcU1yNgFuAtai+QoECwOnNWmsM7BR3Uya9XdNynRUmOoR4O/AGODDVk7ImED6oEJrWRrUYE+1MU0hJKY6C5bBBnWr+DywdqsnYUyOzA+sDxwI3Ipkxf6ItPKN6QnsTv1KxbHYqDamCWRpVK8MbIjCQGoxPMPxTDhLtnoCxjSRgcBuSB5vDN3lxRrxXh4TMqYO/YDjcur71Zz6NcZ0Ia1RvRiKq3wS6V/ejWIbt6lxfpbFFIwxJikbIcP6j8AiCc7fFPgMsDXwc+B6YEJekzMG2BEYllPfNqqNaQIxMdX9gK1Q8tm2QP+K4wsCV6CHwwepZmeMMdmyG8ox+CqKva7Hm8DfSj9lBqOkr3o7cu3M/ki5IoRf4p0BgJ1TtH0VLRgfBd5H7+nBqGbEisC41LMzxjQkxKheEZUf351OCb1aDEYxvEmTxj4GXgiYi6nPSBRfaoz5NEujkJBvADcHtp1CsgJY7crXCAuzATgdG9UdwJaRbY9HYSOfZDcdY0wMSY3qA9CDLyRcZErAuS8AowLON/UZQ/iLzZh2Yh7gOmQEhhrWxmTNKsTtfpwHHJXxXIwxkSQxqjuA3xJmUI8BnoiZUBuxKLAq3bW650NFcerRF4XYAMwCHqPYFSwnowf/aGB1ZMxkzUSkUf3PHPo2tTkb7UiNomcWcuoPXI0SrB9t8VxMe7NqRJuPgJ9mPRFjTDxJjOr+Cc8DxXJdjhJ70ughfxdtaYFW4Rd2ObY/cAwwEzgM6V6XORw4Gm2DHQGcn2IOebITmve8GfV3ECodX0QmAz8s/X8/5JEZDawJbIwM7RDeRzGujyNDaCzeOm4VB5T+2wGsgP6uo5Gs3XqtmlQgA4E/A6sBU1s8F9O+xChj/R0/+4wpFEmM5Ubxg3OB24GLgRtJXxJ7GWQMl5VCzgfuQJn3KwFndTn3EuSdfBu91E8qfT4f8Dv00Hk55Xzy4PdkZ1ADnFDqc2aGfebBLKQU8yS6X3ZEBk0IdwPfznZaJiWzgedLP1cgz/XjgX28T/IwjAHoO74EyvVYOHCsSoYBJ9O5+DOm2cTcw95dMaZgJDGqZ6It0srM5BeRUXsJ2ZZAHU536b2+pc8mAMtWnNsfGIGM6spjHUg6q2hGdQeweMZ9zoeuRdGNamNq8QqwR2TbVYBvAvuisKoY9gbORTsfxjSbmLC4dzKfhTEmFUnjpHcD9gP+hF48GyHP8PFka1CDVt9dqz+9Tqf01f1I5qrMi3TGbt9bMZfnkUe0aMxG1d6y5Hpcjtm0L8+isK+RdA8VC+XIbKZjTFP4uNUTMMZ0J2ms9CwUTvG7HOdS5kOUOLQfSuI7G5heOjYVxWvuU/r3WXSGm3xYOrYX8tj+oTTvIrI70mYdTTIZpOlU90LPRtvsv81uasb0WKYg2c+XgF9FtP86cAjwRpaTMsYY0x7EFH9pBq+gRMNqTKxz7DXg2DwmlDHv05nkZYzJlhNQrPV3Atv1RWFup2U+I2OMMb2eohjVCxMfT2k+zdBWT8CYFnMgsA3hMdZfwUa1McaYCIpiVA9DahDG9GZWAD6LkmuXBhZAkm59kIrONJRDMAl4pvTzUSsm2guYCvwG+HVgu/XRc7GooWPVGAqsge6r4UjHfhDyvM9B99Bb6N4q55pMbsE8i0I/pK/+WWA5lNBevl6z0bV5AyW5P4muWRqJ2N7CQHTdRqLrthC618r32WQk8fcS8B+U9NtTqzx+DtgEPbMXQN+hd1H+xr20RgChL5KiXR0lZw9Gf5OZKPTtJXTNHyG9ClsHUnEahVTXBiPFsrlIGOIl4N8o/LSVFWYXBtZGf6fhdM5zDroGk9HfagK6Lrkn9xbFqDamN7IksF3pZwP0EgphJvAwcBtS4Hkx09n1fv4InEj3AkuNmB9YHlV5LSoLAlsB26Ok8aUj+ngS+AdwLbrHQvgDMqyqMSpiLldTP+nuOpRbk4aBqD7ALuiazR/QdjKSZ/0TcAvxhuLxwBdrHKt1PetxJI13eN/k08pdISyDJEy3B9ZCKlNJmQE8hKR2r0GLujRsRXbJxLcCp1T5fGuU77RWnbZno/DN/VFF1iw4E7ihxrFV0c7bjiRTDpuKpGpPBZ4KnMcqdP5eiyU4/11Uc+NMYHzgWLGMQHlpX0WLn5Dn+wvofryanJSebFQbky0D0MPve8DmhH3hK+kPfKH0czzSZD8JV45MyhvI279aYLuRFNOo3hjdV18jfWXSz5V+DkPX6GT0ckzioV8LecazYt0Gx8em6HsQMoCOQF6sGIYgycZvIiP1dGREhO4irYYM+qxYqfRTj1iP6nrIgN0hsj3oHv1S6edUtIA7iXAN+zJDye76vVvx7/7IWP5Bgravlv47MsP5jOHTRvXSKBQt1HBfEOWT7A5chpKvGxUJWhQtMnaju6RxIxZB3699kHDEz8hvd3UV4DhkTMeyEnoWHAHcU+rvH+mn1klI6XFjTG0GIQPlReSV2YJ0BnU1NkcPgNvQdpdpTKinBpJ5aJpFOXnyMeBO5GlNa1BXsipwKTJ2Ns6471ayDVocnUC8QV3JUBRS9Czw5Yz6LBKLAVcBD5DOoK6kD1qUPIZkL0N37bJmiS7/PwB5L5MY1NBd8jcrKj3Q30T3WBpPeB9kWD+GQp1qsRnaudqDMIO6K/2Q8f4w2t3IknmRwf8U6QzqSjZEhQuvI8M8NBvVxqSjHyo6Mh7F8MZsxYeyFTKA9mzCWD2dSo9UEoZkPYlItkE6/FehWMq8WQ1Vrz2Z+JdrEehAnuS/oBCsPBgB/A2FCmS9eG4Vm6P48TThIkn4LjIYN8x5nHp0TWA+FyUoJyUPo7rrfI5G4QkLZNT3cOQJryyQBzLebwM+k9FYq6F6IsMz6m9ZVLvkR+Rnr/4fWnhskEVnNqqNiWcd9IU/h+6ej2YwP3AR0mPuLS/1PJjc6glEMAyVbP8L4aEraekD/Bi4CVVq7WnMh+KemyFZ2gc4CjiPnr0IAcXs/p24cukxDAX+hQzsVrBI6b+7EO6ceLXxKcGUPdVHAsfk1P8NdN/l2gmFfIXEySdhKbTgHJSyn3VQTP4qqWfUmM+gsMot0nZUlJjq6SiT1GTDKLLb7jS1uZbsVuSx/BTFwR7d4nkUlZiy5dUKLTWTM1FyayvZBm2Lbkdrs/tDGIC+k1s3edzvo3tmvyaPmxX7AGe0YNz+dFZAvajJYy+KDOszA9vNJn3CZTUWR0buiTn0XWYU8vj+CuVEXE5+jtWVUe7B9yLbr4486M1a5IGSmW9Fqi/3xXZSFKN6PL0rlq/VjCHbhBhTbH6Bkrn+3OJ5FJEk2fKVTMl8FmEUZedha/SSP7zVE0nI79FioBXsi76DF7Ro/Fh2pjmVkutxAZI6u7nJ455EuNH2OvksMofRnIXFj4HzkTJS3jtRe6FdnEcC2w2lubsmXemPPPqjUTHBYIpiVFej/GKppg86D9IhrOZRGlhqU0+iqQgsg1aOlSvF+Wm8HdMXZfjORLFAD2Q9OdPjOB+4m7gY4t5MPWmsWuSxvdtTOQwlcd3f4nk0Yk9aF0pQ5gwU0vBSi+eRlNXp9BS3kr7IyFsH6Vs3i5j7Ja9nQ9pQiaQMBu6ifuJilhwNbBtwfgfKIckqxjuGxZFs6FYxjYtqVB+IMrYBfo62EcocVfpsFoo/OqvLseNLn81A3rtT855oJLugbPus4vB+Sr7bRqY6IVq31ZiO7tVBaOs6DYsiL0RWOq69gTWIy0Qfl/VEmszHwIfIwTAwZV990bN445T95Mlw0utYZ8FA5JlLHZfZBPoj46UocfODUTjC+tT2BN+IpOFGo8Td0aRLRI3ZEeqapHgK8CByjpXntEiVNkWjWQY1KAF0JMk1rA+jGM+aLZGddkVowyIa1csiI7p8w5+G4lzGoaSdX5Y+H1A67zqkR/tZpJEIelCcgtz4E5ow51BOJ9vElvICoqdWr+qphCZ43Ivk9u5H8kBdd1qGosIQexKWid6V/dD348PI9r2NmBjXSeQTM5knz6OH/11o52p6l2MLIs3hbwC7EifHtxGqWlbexj2F2rKD+6PiOSEcR30d3Ua6xucQbxxOQbGbE4D30eJ0RWQYxyyaN0dGwZgqxy6s8TkonvZLgWNdRePCPVNrfH4EklKM5WX0u7xUGmMhJPO5CfHyZGujBNPTaxyfjEJEuoaJLI6qPB5EpGcxkK5G9SSk0nF1l8+WQcb1z4nbJavkaXT/v4MWuOX3xFIZ9F2NsaXx3kOLxCXR/Twksr8+wNdJ5vQbTrrcoOfQM/DV0rhDkQb+2pH9HYve10HVdYtoVC/Fp1eQSyKjuvJG6otikd4o/bcrfShmsl4H2ccKDaDnZ5/3Zv6DqpI9WuecN9EC8TqkG3oN4V6PQejlHLy67oWsQdz27piM55En01Gxhnqx9FORFuvtKIb0z8QZU7vTaVTXu792JNyovgiYGD4lQC/8mDjq2Shh6ySqL0LLuvM/J/w9+ROq30e31GkzgnCj+nbgksA2oK31n0S0AxUKOrQ0djX6Ii3hU9DvFMox6HeanPD8t5HSxHo036iudfwV9ByONapnop2XM6hdvGdTJAWYRb2C2aXxTqsxXj/0/jqNONtlB5IZ1ccStzieCOxN7XtyFZSQullgv8ujBcFVIY2KKKn3b7pvv05AsiogT9/ELseeQp4Z0Aql6xbDE0jQvGjMpnY50lguJ78qRiY9N1PfoK7kXygOLWiFXKLZygdFZDDyHsUsNHtSsudjhM13HHoZT4oYq6j31TERbeYgbdqjqb2rMw295P+P8MS0LYgzKJvFEcQZLzciQ7GW8QK6ttehkIgxEWMMBg6OaJcV7yE746YuP3cg++IB5A3NkwnoGh9K/WqYd6AY9JjiVl15B3m+D64z3iwU8/4FtJsTylo0vt9Gop20UJ5D16HePfksCue4JqL/YPWSInqqP0Z/5O8jb/P5dCYdTkfu/O+gL+9FdBoeM1A81q5opXdF6ZwisifyXq6NFjbTErSZxqeNrDloq+a8TGdnsibmQfwg2i7eO7BdJgL2PZgl0CJm5Yi27yNt6J5CTCn1t5H39eLAdsujrfa3I8bMi1HEqRwdi4ylJNwM/BblKySlD/AtipnnsgBSZQjlEVQoJGmI4RTkoXyQ8Bje/VEcfzPDGa9Hf+cHqC6O0AxeQbsVSVUnJiN7Zyxx8eFTUAGe5xOe/zyS5AtNbu1AMef31DnnAMKdIDPQzth/E5w7G+1crkeYDO6maGfnjaQNimhUgx7cv6pz7JQax96hdjxWkZhGZ/y36f08G9nuAsKN6uEoHKjd4uv7o1CIE4mT0QNtEc7IbEb580xkuyuRjFpoEuOKFMuojgnveQGFfIRwLCphHRJOWJYjLBrfIFxpYjZyZIU+U6YiAz5UOWYRZCxdG9guhpnodwva4s+JgwiXcXsSuBMZf6HsQ3KDuswVKAxkwcB2K1PbqB6AkgJDOYEwtZgPkd11eeA4WxIQZlUUo3oxWrvl09toRqlsk5zYLcPH0QIs5CXYF62s620dFpEBhG2Z90Fe6RXRtuQOpKtq+R49Y0HeldjF2ifI0AmNMYxRUsmLvshzGsqphC+cpiOj64cBbTZASaFFW6TFGC9XEv8MewDFkocWM9qZ5hjVe1EMgxriq79eT7hR/QFxv/cMJBzxrcB29WK/tyA8f2g64YV7QNfqbMISLzehBxrVS6LVjzE9iafQdmo93iO+mMgctO0UmowyhJ5nVH+W1ir1HEpxSppPQDkhjYj1VEPAdmYXiiK/Bgr9CN2RmE64l6rMHYQZ1R3A5wgvfJEnC6DQylDSyhWeTrhRvTn577jdClyWY//NIiRfp0waOdjHCTeq60kfxiSYXk3c8/pj5FAIUdgaHTJAUYxqY3oiGzZhjBh5vKJU5Osp3IB044vCIU0Yo56EXS2aVaAiCTFa0HcQn9AdY7isRrGM6o0IlwGdRGPZvkaMQYu4kIIeC6D8qXpxuGn5Z459N5OYXYQ0IhUxuRyL1jkW813+a0SbMmMJM6qD8nOKqP5hjDHN4gkUU9lutCoZKyti5MruTDHeOxFtKmVeW03MNbstg3HnINm7UD6fwdjtwFTilKJiiVmQz1vj8wVQCF8oab7LbwWe30FAEqWNamNMu/I08pIkUd8xxWJURJs04TK1iqjUI68CHbGsGdHm7ozGfiCijY3q5ExvfEpmxDwva4VJrkH4zurrxEn7lYn5Lic2qh3+YYxpR+5DBRqSyDGZYtGXOB3odUhX1jqUIoXLgLSAQ8lKlzkmZGC5jMZuB6bQvGJ3H0S0qWWUhhaKAim27BHRrkxMXkFiw99GtTGtYd7Sz5AG5w3Ifyptx1lIb7U3yg72Q8bcAtT3roRKYhWJJYh7dx2X9UQakCYZLA9iVKFCJMvqEbNLYBWr5DQznCu0GFI9Yha5wwnX2U9LjzOqp6NKiiYbRlHMEu3tRln0fi20zbUC8rAtQbGUFNqFZ5CCw72tnkgGrIw8r6PRfbUcekE1UqPpDaSRTmxXBhK+kPqQuK3yaryLDL+Qrf6hGY1tikuv+y4XxageD2zc6kn0IsYQV2nMpKc/kgjaBYnGD2npbAxI+vAEpHtb1CqrSVgfFbjZluIlwTWTnuxlbxXzRLTJOk53KmHOnlrJbab30Oucf0UxqtuRwcAqNH7Y9aH+jfcU8GJWkzLR9Ede0B/T3gZPURiPZJcuo+fvgu0AHEWgXmovJrScsYnbwYiR86xHqFENCqFpZhKeaS697rtcVKP6W6hMeR/0Mukq2P8d4CcoWP0IuusV7gUcjRJZfkaxtGe7sg1wDdnE3M0F9gXOzaAvE8f6wIWogIlpDtNQbN9kpIE7CSVDPYF0dSe2amIZMgz4A/DlVk+kYPQ671YTKILxErNLFKqrbXoWvW7XqYhG9dLIu1R+CFwC3AW8ijJFL6YzLutPKCZnGrAscEGXY39A2pihmoTN4DyyS2LpA5yCjLqZGfVpkvN94Bz88E/LE8TJpPVWNgKuo37RhHYly0SpdqEISbkxz8jYYj2mZ9CTw/GqUkSd6uXovqruoFN2ZQW6JzrMR6e00rCKY/0Iq+DULPqRvX7pIKwS0QoOBM7HBrXJlo1Q0Q0b1NWJkfRqd2JCObJOeo1xJM3IeA6mWGSVCFsYimhUPwa82eXfb9JZIvYBuot+T6BT//JRJAre9Vgasf+8mAX8I+M+b8FxZ81mC+C0Vk/C9DqWQWXTB7Z6IgXG3stwYozqrBWKQsN2/E7r/Xzc6glkTRHDP6Yhce4DkdF/Bp2eiSnABsB+6MF6Np0hD9ORxNT+yHA9l+KGQ+wCnIgqXFWLdZtO47nPRtflmVJfpnnMh8KLYhelY5ASxUMoFngytT0yY5Ecn2kPzgYWjmz7LPBH4H7gJXRf1TJMTgcOihyn1cR6t75PXLnxWN5o4liN+AT97iG7H/MCC5Guel2ZmF3jSRmMa4rNlIg2TwG/yHoiDUgcPlVEoxqkZlHrgf88cECNY5NQEmPR+S/wvVZPwkSzN/IohjIO2BUl0hlTyfrAdhHtpgI/QAu1ZhaBaBUvR7Z7Fi042pXXCA8pWpm4EuPV+gnltQzGNcXmlYg28wA3ZjyPzCiKUT0I61RnyZBWT6CHcBCwSYLzTkRe5TL7RIz1IrAhxUycNcXghxFtPkJ66A9mPJci8yHhXleAFWlvo3oc4cnAK5GNUR2jjDQug3FNsZkY0WY5ZLvOynYq2VAUo3p54M5WT8K0HVsgecNGXNLl/1dECbOh7IINalObDpLdi5UcSXsZ1GXGApsHttmU7t/lduMx4OuBbdYjm2u2QUSbxzMY1xSbsRFt+iEHVSFtxiImKhrTLBaJaLN2RJu/093TbUwlwwm/H98Hfp/DXHoCMSFU21IcR1IreCSizVcIKy1ejQ7itNZj5mt6FpPoLjCRlB0znkdm2Kg27UyMUb1841M+xb8i2pj2Iibm9A6Km4wdQozRFvOdWohwT21v4l7CVUCGIeGANGwJLBbY5r/EeTFNzyPmu7wrChsuHM02qi2F1FraIYkphBijOkaZ4c3Gp5g2J0YTuEjqEmmIqZB4N3GqFL9EiU7tyAzgnxHtDkw5bozKzG30wsIgpio3RbRZGPhx1hPJgmYb1c/QC3UJexBPtnoCBaIv8dJlocSWYl2E7AsFmWISU0BoocixOpCcZx7EVO6LkVubhSpOhjISOCmiXSMGkL2ucx5cEdHma0iuNobNiAv9uCxyPNPz+Btx0no/JS4csxFD0jRutlE9DTiuyWMacT4qiGNEjJca4haFG0W0GQz8GVfVaxditJe/SPgzvA/Swv5SxHhJeC+izYaRY50T2e4gYN/ItpUMQKot41GNhKJzI/BuRLtLCd9RWAy4KGKsCSi0ybQH04GLI9r1Q17ukRnNYxlU32QSKZxZrUjaOAHpjO6UcPzlgdWqfP4m7ZH8tQnVPZ1jSLa6m422/M7PcE69gVijOkY79auogMsTCc9fEfgT8LmIsaCgsWamLjHJOsOBPYELE56/cOncHSPGSkpMqNNeqDrpfwPbPQHcTpwn9Bx0/X5BXCnswcB3gB+huGOQUf1bCir1VeITdK2PD2y3MgrJ2IlkKkZLAbcSp+d/Mg79aDfOREX9QnfsPgPch9S1YkKbQPblAehZWh5/X+BnMZ21KhP6CpJvQ+2FqtdV8hAFzgDNkLFUr6h3CO2ZyLEycEwG/cSuRF+IaNOBXjBfpb5qweLo73oI6eI+B6Roa1rDOJTzEJq09zuUfHZVnXMGAt8FjiY8Yawr8yY4J0ZbeHEUI70fchZ0NaiWQYvMWi/MI5E0Zkyy4+HISDwZLWIbOSmGoV2n7YDt+fT1GFbq708Rc2kmZ6BnTKhjYX3gaWSQX0L16zUEvbOPIi5W/lXivNumZzMBPcti4u8XB/6BdnZPRwm59RZl/ZBe+6YocXmtKuf8AN3nwXmAPUFeaHaNz2NiEE3rGYxu6NFIrimUlZBx0CoeQl/Y0G33pZCe8K3I4zMBfWEXRdtXG6EveRYGcStCRuZHf9dR6PcIZQRwCvAoWiz+h2J5q0YA65Z+5o9ofzJwD1pU/YdPJw1PQTkn1Xbl6jEAuBIZSdejqoEfoN2K5ZHO8FeIj+vvSpL7KuluTCUrIxWAaSg8Yf7Sz8DS8UFUL7n+OHABegnGsEKp/bmo/PG40jhlI30x9NJegWRG4kEkN6oHo1jldYCtkk/5f+yF4uofRNchaWjaNLQYuSBizEWR4fIbOr+nn6D38Uro+5/GrjiE5HH5g5BBtC5azITybTTvB9FzJ1QZpZKF0d9yXeLCqw5F74K70XVtxHxI/3szdI+GcjparN5Dsl3vZdDvFbMzNAL4NXp/PkT1nblfAt8Ehkb0D7oHdkK/y2MojGMW+i4PQN/lYei52OgeXRTdH0l3Af9Hn7lz6wtCrLpnTKhLpuxB9Xibu2iPKoxjqe6pXpOe4akehLZFP4/mnFX8UzPZie5lUf9FnOHYLN5ABtp4VMnxWuLKwTbiULQ4WhO9ULPM0ZiGEmsfBf6KklmaySBkIK2HXpQxL61aTEbG9cMoDKEcMnEc8PMMx8maD5Dx9hK6r/7Bp0PwBqDfbyDZsgrwXI1jg5BBPCLjMWNZC9231fg2MkrWRd+ZtBrQZWah98HDKIGzUWGMPqVzYvI98uJGGhvHX0E71OuiBWhWz5zZ6B56EF2/pDJv30XvgnWIKwpWi7eQsXsb3T33g1DI0SZo5yAL5+IcdL/egQztriFc2wI7o/yN4RmMVWYSutYPl8YsL6S2Af6S4ThpeBpYvfyPZy7eM1EjG9XFZyw926geQc9PkKw0qr9NXBZ9q6icf1Y0S6LxJpof6jWC5ty3m6CQB5AHZRzZGVp5cwZwcJXPr0ehTlmyNfUXVqOREZK1MR/D5cBuNY6NpfrzPEsuRe/NRiyFjKklcp1NMl5GjpdGia43AjvkPJek1w9UZjtLY7OSl+m+WBxBvs+lrs8jaM71XggtxMucTHHk8jajlDSb1Kh28RdjwrmWuNhqY+rxIj1rsVaL4C3TBDRKeHsUGbJFCBlKs4XdTCYhubwYGcQsmYoWzTHKMab3cSSKjy4CB4c2sFFtTDizUHZwM17gE5swhikOh9Mc4+IdqscoZ8Ft1A5/iCWJisT1wO603rDuD3y/xXNIyr0oWatVlTk/QjtpY1s0vikec1DIyS2tnggKfwnaibBRbUwcd5B/wuTTKKY3pnKc6Zm8AXyLfGXZJqO43ntz6n8uShzM0lBLKs12BfK+Tstw7FD+ghIfewo3I+NhcpPHfRvdh9akNpV8gr7Hl7RwDjNQ4mxQPlJeRnU5y7II8W31WBAlwGyAkkaykiIbgZII1geWy6jPSrLI5getwjZE2eexFdraleOBE3Pq+w70dyknrJj24XakgZyH9/Al9Fx6HOWl5MVjwN4Z9heid/xnlDj2VIbjJ+Fl5GHbnnDN7VZzO7pmY5s03gOoGl5eCzvT8/kEaUfvTXplllBuQUmKZxCYO5S1UT0v8hS8jaz76ehL+jPiZL5WQ1tT1VgTxbuEGu4dwK5IMPw9pJJwH/A8WqnfgnRPQxmGhP9fR4kE95d+XkTZtGcBy0b0W+tvdBfyZB5C+DVYEPhJaW4TkYTPbeiFm1eltd7KT4Hvkd1W+iykAPFlOj1HRdgGM83lSpQk82qGfV6OksGeL/077/vqYhSOEVNcpZLQIiLPoeTFw8kvzKXMi8A+wGeBa2heAm/WjEOGbp7XbApwIFKTyEORyPQ+zkfOz5uaMNZf0L25PXGa+5kb1b9Ayghl+qBM5+PRBL+TsJ950ArhSWprGS+IKkO9QHJ5s5WRhMtlyDvdUXF8INoGux1tiSUVx98XPcQPQRV+KlkCyco9CxxGsuz+wWiBsnqdc1ZFhvyz6EZIwqZoIXECn/aiD0EvXmuAh3Eh+jtdS7oX6o3ob/oruuuzX0uECL3p8dyDHAunklyDuBr/Rln9u9Fdj/Zpso99ruQyZNyOSdnP0oS/r2Yi7fNh6N30Rso5dOUjZEBviYrTnEvv+I7OQtdsaeBYsrtmryNHzgjkYGp13LvpWbyMkllHo/dhlsm1LyM505GosNN9aTrLWlLvFTpLttbiTORhrjXwYOQ1XT9g3DnII1Ivc35T4AbCqjxNRF7r8TWO90EPiP0C+gS9aPakdmGbocDfCStTPRNdg6vrnLMLkguqXExUsj7SkMyCIURk0BaMq+n07jViOfS33Q79/RotoJ5FOsznU39lvDvxoUQh8w/hmBz6rMbz1L+v82AIzblvLyFZMurCyCjeCTkEGi18J6FnyMXU32LflPjdqQcJ0w//ItL13YZkut8fo2IydyNHxx2kM8b6IhnWHUpzWYPGz8Iy01DIzL/Rdb2LuIXOD8lfGWQs2Ulo9kULsu0Ju2ZzSvO4pzSXu8nGkN4ZOcfyZCzJr9/B6FmRF5ORjnOZIeT7XLqE7s+jZlzvXxP+XVoIyXZuAXwBLQKT8ipyJtyPbM2nkzRqlU71xyQrr/xb5LGtZD704Fw3ZNASc5DRWO3l+3n0pY6phPZKaT5vVjl2ChJij+EPVM8QH4xegqGV1UDXYHtUta+SHVF2fBJvTyNNWJOMBZDneTgKf+qPPEFT0YPrOXpe7KVpPf3R82EEMk4HIifFFORZfB55X4rMcsjDuzQqaAEKE5mGfoeXUThaLcdDFgxEIXnLoe/nIFRpbTYqdDMdvYBfLc3J3lWFeC6Hrtti6J3aHzl1piNVmZforBhrTDNYjM7v8nx05px9hJ4rbwGvoe/y5JgBWmVUP4xispKwL/D7rnNBBvE3QgasYAbyRHT1sg5DVb+qhWUk5eFSv10fEvugWvVpOBI4qcu/B6Cwky1T9DkNebK6JumEFEaYjV501RYRxhhjjDFtRauKv/yC5Kv5s+heQ/5U0hnUIC/5jXQmtQxBW+tpDGpQVnTXsIntgbNT9glSjihXHusAriKdQQ3yttxC53bISHQNkiYznooNamOMMcaYIPpl3N/fkDTbvsgNvyq14686kAF8Dtoer6XyUWYySrAbisr51mIJJNdzPZ1JJPV4Fm1ZrUr9xMSvo63W8Si+td6C5CPgEfQ7rkXtkJiyd/4aYAUah71MRPE/SwOj6pw3HHnn/4XiFxeuc+5sdL1eRsb3VQ3mYIwxxhhjKsg6/KOSJZEywlZpOkHqIcfTKc20MVKpWCpFn28hz/jdpX/3R+odJ5LOg38jsBedVdEWR4mJX67VIAEzUbjJRXQmeG6A9FiTJPzU4nnkKX8uRR/GGGOMMb2WVoV/VPI6UkG4IUUfBwNH0V3rdAwyrN+K7PMdlMl8d5fPZgIno+z0WK5DVYC6lhl+G12D2MS/OcA30eKk6wrofvQ7vBvZ73iU9W+D2hhjjDEmJc0oUz4LSUE9HtH2d0ivuhrjkaJFaGGBGUiWqpZM3qV0Tx5MyiNIh7tatvonyCseU+Hrx8gjXY1x6HcJrbw2GRn6Vp4wxhhjjMmAZhjVoBKT2xEmJH8DqrxUjweRJnBSyrJ7jUqj/oQw7/o4FLtcr5TmB+gavB3Q72lIfrAe91Bdmq8WH6ECN3noFhtjjDHGtCXNMqpBxQi2LP23ETcj4zeJRulVSFC/kepIuTjK9Qn6nAt8i2QC8OWKjkm8vi8Dm5PsGpxFdS3valxKsmvwAVIuSVUxyBhjjDHGdKeZRjUo/GE0qnxYzWB+HxVT2YmwCjvnARsBj9U4/hCqulOv4mIln6D46EOobjDPQLJ6ayNR8aQ8hYrRXEr1sI2JKIb6QMJKXp8HbEj1Sohz0UJlTeCfAX0aY4wxxpgE5K3+UY8BSEd6HmT0fYhifdNWrZofVbLrh+K5y5Wx0tAXVegZWPr/GWius1L227/U7zxokfEhKt4SYkxXYyDSq+6gs4LfJyn7NMYYY4xpOzKrqGiMMcYYY4ypT7PDP4wxxhhjjOl12Kg2xhhjjDEmJTaqjTHGGGOMSYmNamOMMcYYY1Jio9oYY4wxxpiU2Kg2xhhjjDEmJTaqjTHGGGOMSYmNamOMMcYYY1Jio9oYY4wxxpiU2Kg2xhhjjDEmJTaqjTHGGGOMScn/A9M416LzPyW7AAAAAElFTkSuQmCC;" parent="1" vertex="1">
                    <mxGeometry x="34" width="220.25" height="47" as="geometry"/>
                </mxCell>
                <mxCell id="7" value="" style="rounded=0;whiteSpace=wrap;html=1;sketch=0;fillColor=#0050ef;fontColor=#ffffff;strokeColor=#001DBC;" parent="1" vertex="1">
                    <mxGeometry x="-1" y="50" width="826" height="374" as="geometry"/>
                </mxCell>
                <mxCell id="13" value="" style="rounded=0;whiteSpace=wrap;html=1;sketch=0;" vertex="1" parent="1">
                    <mxGeometry x="40" y="440" width="750" height="38" as="geometry"/>
                </mxCell>
                <mxCell id="14" value="" style="rounded=1;whiteSpace=wrap;html=1;sketch=0;" vertex="1" parent="1">
                    <mxGeometry x="90" y="520" width="194.37" height="480" as="geometry"/>
                </mxCell>
                <mxCell id="15" value="" style="rounded=1;whiteSpace=wrap;html=1;sketch=0;" vertex="1" parent="1">
                    <mxGeometry x="319" y="520" width="190" height="480" as="geometry"/>
                </mxCell>
                <mxCell id="16" value="" style="rounded=1;whiteSpace=wrap;html=1;sketch=0;" vertex="1" parent="1">
                    <mxGeometry x="550" y="520" width="190" height="480" as="geometry"/>
                </mxCell>
                <mxCell id="22" value="" style="whiteSpace=wrap;html=1;aspect=fixed;sketch=0;fillColor=#60a917;fontColor=#ffffff;strokeColor=#2D7600;" vertex="1" parent="1">
                    <mxGeometry x="414" y="50" width="411" height="373" as="geometry"/>
                </mxCell>
                <mxCell id="23" value="" style="ellipse;shape=doubleEllipse;whiteSpace=wrap;html=1;sketch=0;" vertex="1" parent="1">
                    <mxGeometry x="101.18" y="320" width="190" height="60" as="geometry"/>
                </mxCell>
                <mxCell id="26" value="" style="rounded=0;whiteSpace=wrap;html=1;sketch=0;" vertex="1" parent="1">
                    <mxGeometry x="40" y="1040" width="759" height="38" as="geometry"/>
                </mxCell>
                <mxCell id="27" value="" style="rounded=0;whiteSpace=wrap;html=1;sketch=0;" vertex="1" parent="1">
                    <mxGeometry x="40" y="1120" width="760" height="80" as="geometry"/>
                </mxCell>
                <mxCell id="29" value="" style="ellipse;shape=doubleEllipse;whiteSpace=wrap;html=1;sketch=0;" vertex="1" parent="1">
                    <mxGeometry x="318" y="1240" width="190" height="60" as="geometry"/>
                </mxCell>
                <mxCell id="30" value="" style="rounded=0;whiteSpace=wrap;html=1;sketch=0;" vertex="1" parent="1">
                    <mxGeometry x="40" y="1340" width="760" height="80" as="geometry"/>
                </mxCell>
                <mxCell id="31" value="" style="ellipse;shape=doubleEllipse;whiteSpace=wrap;html=1;sketch=0;" vertex="1" parent="1">
                    <mxGeometry x="319" y="1460" width="190" height="60" as="geometry"/>
                </mxCell>
                <mxCell id="32" value="" style="rounded=0;whiteSpace=wrap;html=1;sketch=0;" vertex="1" parent="1">
                    <mxGeometry x="40" y="1560" width="759" height="80" as="geometry"/>
                </mxCell>
                <mxCell id="33" value="" style="ellipse;shape=doubleEllipse;whiteSpace=wrap;html=1;sketch=0;" vertex="1" parent="1">
                    <mxGeometry x="318" y="1680" width="190" height="60" as="geometry"/>
                </mxCell>
                <mxCell id="34" value="" style="rounded=0;whiteSpace=wrap;html=1;sketch=0;" vertex="1" parent="1">
                    <mxGeometry x="40" y="1800" width="760" height="80" as="geometry"/>
                </mxCell>
                <mxCell id="35" value="" style="whiteSpace=wrap;html=1;aspect=fixed;sketch=0;" vertex="1" parent="1">
                    <mxGeometry x="40" y="1920" width="360" height="360" as="geometry"/>
                </mxCell>
                <mxCell id="36" value="" style="whiteSpace=wrap;html=1;aspect=fixed;sketch=0;" vertex="1" parent="1">
                    <mxGeometry x="440" y="1920" width="359" height="359" as="geometry"/>
                </mxCell>
                <mxCell id="37" value="" style="shape=image;verticalLabelPosition=bottom;labelBackgroundColor=#ffffff;verticalAlign=top;aspect=fixed;imageAspect=0;image=data:image/png,iVBORw0KGgoAAAANSUhEUgAAAtUAAAB4CAYAAAA9rg5yAAAACXBIWXMAAAsTAAALEwEAmpwYAAAGtWlUWHRYTUw6Y29tLmFkb2JlLnhtcAAAAAAAPD94cGFja2V0IGJlZ2luPSLvu78iIGlkPSJXNU0wTXBDZWhpSHpyZVN6TlRjemtjOWQiPz4gPHg6eG1wbWV0YSB4bWxuczp4PSJhZG9iZTpuczptZXRhLyIgeDp4bXB0az0iQWRvYmUgWE1QIENvcmUgNi4wLWMwMDIgNzkuMTY0NDg4LCAyMDIwLzA3LzEwLTIyOjA2OjUzICAgICAgICAiPiA8cmRmOlJERiB4bWxuczpyZGY9Imh0dHA6Ly93d3cudzMub3JnLzE5OTkvMDIvMjItcmRmLXN5bnRheC1ucyMiPiA8cmRmOkRlc2NyaXB0aW9uIHJkZjphYm91dD0iIiB4bWxuczp4bXA9Imh0dHA6Ly9ucy5hZG9iZS5jb20veGFwLzEuMC8iIHhtbG5zOnhtcE1NPSJodHRwOi8vbnMuYWRvYmUuY29tL3hhcC8xLjAvbW0vIiB4bWxuczpzdEV2dD0iaHR0cDovL25zLmFkb2JlLmNvbS94YXAvMS4wL3NUeXBlL1Jlc291cmNlRXZlbnQjIiB4bWxuczpkYz0iaHR0cDovL3B1cmwub3JnL2RjL2VsZW1lbnRzLzEuMS8iIHhtbG5zOnBob3Rvc2hvcD0iaHR0cDovL25zLmFkb2JlLmNvbS9waG90b3Nob3AvMS4wLyIgeG1wOkNyZWF0b3JUb29sPSJBZG9iZSBQaG90b3Nob3AgMjIuMCAoV2luZG93cykiIHhtcDpDcmVhdGVEYXRlPSIyMDIxLTA3LTA1VDE2OjAzOjE1KzAyOjAwIiB4bXA6TWV0YWRhdGFEYXRlPSIyMDIxLTA3LTA3VDEwOjEzKzAyOjAwIiB4bXA6TW9kaWZ5RGF0ZT0iMjAyMS0wNy0wN1QxMDoxMyswMjowMCIgeG1wTU06SW5zdGFuY2VJRD0ieG1wLmlpZDo5NGIwYmViYy03NjllLTcyNGUtYjc5MC1hMTg5MDU0NjRkMDEiIHhtcE1NOkRvY3VtZW50SUQ9ImFkb2JlOmRvY2lkOnBob3Rvc2hvcDo3MjY5NjljNy1lM2Y1LTFjNDQtOTAwYS0xYjA4NWE0YzJkYjgiIHhtcE1NOk9yaWdpbmFsRG9jdW1lbnRJRD0ieG1wLmRpZDo2YWM3YTE5ZC0xYjRhLTc5NDQtYTRhOS1mNzhiNmI4ZDQ5MDkiIGRjOmZvcm1hdD0iaW1hZ2UvcG5nIiBwaG90b3Nob3A6Q29sb3JNb2RlPSIzIiBwaG90b3Nob3A6SUNDUHJvZmlsZT0ic1JHQiBJRUM2MTk2Ni0yLjEiPiA8eG1wTU06SGlzdG9yeT4gPHJkZjpTZXE+IDxyZGY6bGkgc3RFdnQ6YWN0aW9uPSJjcmVhdGVkIiBzdEV2dDppbnN0YW5jZUlEPSJ4bXAuaWlkOjZhYzdhMTlkLTFiNGEtNzk0NC1hNGE5LWY3OGI2YjhkNDkwOSIgc3RFdnQ6d2hlbj0iMjAyMS0wNy0wNVQxNjowMzoxNSswMjowMCIgc3RFdnQ6c29mdHdhcmVBZ2VudD0iQWRvYmUgUGhvdG9zaG9wIDIyLjAgKFdpbmRvd3MpIi8+IDxyZGY6bGkgc3RFdnQ6YWN0aW9uPSJzYXZlZCIgc3RFdnQ6aW5zdGFuY2VJRD0ieG1wLmlpZDo4NzlhZDFkYy0wOTQ1LTE5NDktYTRhMC00NDRkMjQ0NTg4NTYiIHN0RXZ0OndoZW49IjIwMjEtMDctMDVUMTY6MDM6MTUrMDI6MDAiIHN0RXZ0OnNvZnR3YXJlQWdlbnQ9IkFkb2JlIFBob3Rvc2hvcCAyMi4wIChXaW5kb3dzKSIgc3RFdnQ6Y2hhbmdlZD0iLyIvPiA8cmRmOmxpIHN0RXZ0OmFjdGlvbj0ic2F2ZWQiIHN0RXZ0Omluc3RhbmNlSUQ9InhtcC5paWQ6OTRiMGJlYmMtNzY5ZS03MjRlLWI3OTAtYTE4OTA1NDY0ZDAxIiBzdEV2dDp3aGVuPSIyMDIxLTA3LTA3VDEwOjEzKzAyOjAwIiBzdEV2dDpzb2Z0d2FyZUFnZW50PSJBZG9iZSBQaG90b3Nob3AgMjIuMCAoV2luZG93cykiIHN0RXZ0OmNoYW5nZWQ9Ii8iLz4gPC9yZGY6U2VxPiA8L3htcE1NOkhpc3Rvcnk+IDwvcmRmOkRlc2NyaXB0aW9uPiA8L3JkZjpSREY+IDwveDp4bXBtZXRhPiA8P3hwYWNrZXQgZW5kPSJyIj8+A1TxJAAAKiNJREFUeJztnXe4HVX1ht/kJoFAIKFHICRAKFIkGLoiXUC6PwtKEURFelPAgoAgCIh0pUiTjoAUEUWF0JtA6GACCSU0KUlIgJD2++M7x3vv4ZTZe2bOmXvP9z7PfSBnZpc7d87M2muv9a0+c+fOxRhjjDHGGBNP31ZPwBhjjDHGmJ6OjWpjjDHGGGNSYqPaGGOMMcaYlNioNsYYY4wxJiU2qo0xxhhjjEmJjWpjjDHGGGNSYqPaGGOMMcaYlNioNsYYY4wxJiU2qo0xxhhjjEmJjWpjjDHGGGNS0q/RCavueXFMvx3AYkB/4H1gWkwnxhhjjDHGtJJnLt4z0Xl5eKqHAi8AbwCvAB8AB+YwjjHGGGOMMYUgD6P6KGD5is9OARbPYSxjjDHGGGNaTh5G9epVPhsA7JrDWMYYY4wxxrScPIzq8TU+3yOHsYwxxhhjjGk5eRjVV9b4fHVgVA7jGWOMMcYY01LyMKrvAF6rcWyPHMYzxhhjjDGmpeRhVM8BLqtxbBcks2eMMcYYY0yvIa/iL5fU+HxRYJucxjTGGGOMMaYl5GVU/wd4qMaxPXIa0xhjjDHGmJaQZ5nyS2t8vjUwT47jGmOMMcYY01SSGtV9UDz0hcCpVNeiruRq4JMqnw8AFkw4rjHGGGOMMYUnqVF9OnA58F3gUOBJ4K/AZnXavA9cUeXzJ4D/Jp+iMcYYY4wxxSaJUd0BHFDl862BfwKPAjsD/aqcczhwX5d/T0Qeb2OMMcYYY3oNSY3qPnWOfx64ClVS3Ld0fpl3gC8CqwHrASsBz0TN1BhjjDHGmIJSzbtcySwUGz2gwXnDgXOQkf29imM2pI0xPYkF6O4gSMsUYG6G/Zn2ZSUUejkaWBlYGhhc+gH4ADm0XgGeAsaisMsngJlNnqsxbUUSo3oO8CPgDOp7rMvsBRwNTEoxL2OMaSX3AGtk2N9CwOQM+zPtxRDgB+j9umKDcxco/SwLbNTl81WA5/KYnDFGJE1UPAutiq8CZic4f6noGRljjDEGtFtyGMpHOonGBnU9XsliQsaY2oToVD8OfBsYCZwJTK9x3mTg2XTTMsYYY9qaJYF7gd/QGdoRy2Rqv7ONMRmRJPyjkonAQcCxwD5IGWSJ0rGPgT2BaQn6GQDMFzG+CeMjYEarJ2GMMSYxI4E7Ubx0FthLbUwTiDGqy7wH/AqtojcDBgF3A282aLcYKiKzLclitE167gR2B15rwdgLIn3zZvA4cFeTxjJwcAvH/rj0Mx3d15NK/53TwjkZkwVDydaghtY8+41pO9IY1WVmoEIwSbkS2DyDcU1yNgFuAtai+QoECwOnNWmsM7BR3Uya9XdNynRUmOoR4O/AGODDVk7ImED6oEJrWRrUYE+1MU0hJKY6C5bBBnWr+DywdqsnYUyOzA+sDxwI3Ipkxf6ItPKN6QnsTv1KxbHYqDamCWRpVK8MbIjCQGoxPMPxTDhLtnoCxjSRgcBuSB5vDN3lxRrxXh4TMqYO/YDjcur71Zz6NcZ0Ia1RvRiKq3wS6V/ejWIbt6lxfpbFFIwxJikbIcP6j8AiCc7fFPgMsDXwc+B6YEJekzMG2BEYllPfNqqNaQIxMdX9gK1Q8tm2QP+K4wsCV6CHwwepZmeMMdmyG8ox+CqKva7Hm8DfSj9lBqOkr3o7cu3M/ki5IoRf4p0BgJ1TtH0VLRgfBd5H7+nBqGbEisC41LMzxjQkxKheEZUf351OCb1aDEYxvEmTxj4GXgiYi6nPSBRfaoz5NEujkJBvADcHtp1CsgJY7crXCAuzATgdG9UdwJaRbY9HYSOfZDcdY0wMSY3qA9CDLyRcZErAuS8AowLON/UZQ/iLzZh2Yh7gOmQEhhrWxmTNKsTtfpwHHJXxXIwxkSQxqjuA3xJmUI8BnoiZUBuxKLAq3bW650NFcerRF4XYAMwCHqPYFSwnowf/aGB1ZMxkzUSkUf3PHPo2tTkb7UiNomcWcuoPXI0SrB9t8VxMe7NqRJuPgJ9mPRFjTDxJjOr+Cc8DxXJdjhJ70ughfxdtaYFW4Rd2ObY/cAwwEzgM6V6XORw4Gm2DHQGcn2IOebITmve8GfV3ECodX0QmAz8s/X8/5JEZDawJbIwM7RDeRzGujyNDaCzeOm4VB5T+2wGsgP6uo5Gs3XqtmlQgA4E/A6sBU1s8F9O+xChj/R0/+4wpFEmM5Ubxg3OB24GLgRtJXxJ7GWQMl5VCzgfuQJn3KwFndTn3EuSdfBu91E8qfT4f8Dv00Hk55Xzy4PdkZ1ADnFDqc2aGfebBLKQU8yS6X3ZEBk0IdwPfznZaJiWzgedLP1cgz/XjgX28T/IwjAHoO74EyvVYOHCsSoYBJ9O5+DOm2cTcw95dMaZgJDGqZ6It0srM5BeRUXsJ2ZZAHU536b2+pc8mAMtWnNsfGIGM6spjHUg6q2hGdQeweMZ9zoeuRdGNamNq8QqwR2TbVYBvAvuisKoY9gbORTsfxjSbmLC4dzKfhTEmFUnjpHcD9gP+hF48GyHP8PFka1CDVt9dqz+9Tqf01f1I5qrMi3TGbt9bMZfnkUe0aMxG1d6y5Hpcjtm0L8+isK+RdA8VC+XIbKZjTFP4uNUTMMZ0J2ms9CwUTvG7HOdS5kOUOLQfSuI7G5heOjYVxWvuU/r3WXSGm3xYOrYX8tj+oTTvIrI70mYdTTIZpOlU90LPRtvsv81uasb0WKYg2c+XgF9FtP86cAjwRpaTMsYY0x7EFH9pBq+gRMNqTKxz7DXg2DwmlDHv05nkZYzJlhNQrPV3Atv1RWFup2U+I2OMMb2eohjVCxMfT2k+zdBWT8CYFnMgsA3hMdZfwUa1McaYCIpiVA9DahDG9GZWAD6LkmuXBhZAkm59kIrONJRDMAl4pvTzUSsm2guYCvwG+HVgu/XRc7GooWPVGAqsge6r4UjHfhDyvM9B99Bb6N4q55pMbsE8i0I/pK/+WWA5lNBevl6z0bV5AyW5P4muWRqJ2N7CQHTdRqLrthC618r32WQk8fcS8B+U9NtTqzx+DtgEPbMXQN+hd1H+xr20RgChL5KiXR0lZw9Gf5OZKPTtJXTNHyG9ClsHUnEahVTXBiPFsrlIGOIl4N8o/LSVFWYXBtZGf6fhdM5zDroGk9HfagK6Lrkn9xbFqDamN7IksF3pZwP0EgphJvAwcBtS4Hkx09n1fv4InEj3AkuNmB9YHlV5LSoLAlsB26Ok8aUj+ngS+AdwLbrHQvgDMqyqMSpiLldTP+nuOpRbk4aBqD7ALuiazR/QdjKSZ/0TcAvxhuLxwBdrHKt1PetxJI13eN/k08pdISyDJEy3B9ZCKlNJmQE8hKR2r0GLujRsRXbJxLcCp1T5fGuU77RWnbZno/DN/VFF1iw4E7ihxrFV0c7bjiRTDpuKpGpPBZ4KnMcqdP5eiyU4/11Uc+NMYHzgWLGMQHlpX0WLn5Dn+wvofryanJSebFQbky0D0MPve8DmhH3hK+kPfKH0czzSZD8JV45MyhvI279aYLuRFNOo3hjdV18jfWXSz5V+DkPX6GT0ckzioV8LecazYt0Gx8em6HsQMoCOQF6sGIYgycZvIiP1dGREhO4irYYM+qxYqfRTj1iP6nrIgN0hsj3oHv1S6edUtIA7iXAN+zJDye76vVvx7/7IWP5Bgravlv47MsP5jOHTRvXSKBQt1HBfEOWT7A5chpKvGxUJWhQtMnaju6RxIxZB3699kHDEz8hvd3UV4DhkTMeyEnoWHAHcU+rvH+mn1klI6XFjTG0GIQPlReSV2YJ0BnU1NkcPgNvQdpdpTKinBpJ5aJpFOXnyMeBO5GlNa1BXsipwKTJ2Ns6471ayDVocnUC8QV3JUBRS9Czw5Yz6LBKLAVcBD5DOoK6kD1qUPIZkL0N37bJmiS7/PwB5L5MY1NBd8jcrKj3Q30T3WBpPeB9kWD+GQp1qsRnaudqDMIO6K/2Q8f4w2t3IknmRwf8U6QzqSjZEhQuvI8M8NBvVxqSjHyo6Mh7F8MZsxYeyFTKA9mzCWD2dSo9UEoZkPYlItkE6/FehWMq8WQ1Vrz2Z+JdrEehAnuS/oBCsPBgB/A2FCmS9eG4Vm6P48TThIkn4LjIYN8x5nHp0TWA+FyUoJyUPo7rrfI5G4QkLZNT3cOQJryyQBzLebwM+k9FYq6F6IsMz6m9ZVLvkR+Rnr/4fWnhskEVnNqqNiWcd9IU/h+6ej2YwP3AR0mPuLS/1PJjc6glEMAyVbP8L4aEraekD/Bi4CVVq7WnMh+KemyFZ2gc4CjiPnr0IAcXs/p24cukxDAX+hQzsVrBI6b+7EO6ceLXxKcGUPdVHAsfk1P8NdN/l2gmFfIXEySdhKbTgHJSyn3VQTP4qqWfUmM+gsMot0nZUlJjq6SiT1GTDKLLb7jS1uZbsVuSx/BTFwR7d4nkUlZiy5dUKLTWTM1FyayvZBm2Lbkdrs/tDGIC+k1s3edzvo3tmvyaPmxX7AGe0YNz+dFZAvajJYy+KDOszA9vNJn3CZTUWR0buiTn0XWYU8vj+CuVEXE5+jtWVUe7B9yLbr4486M1a5IGSmW9Fqi/3xXZSFKN6PL0rlq/VjCHbhBhTbH6Bkrn+3OJ5FJEk2fKVTMl8FmEUZedha/SSP7zVE0nI79FioBXsi76DF7Ro/Fh2pjmVkutxAZI6u7nJ455EuNH2OvksMofRnIXFj4HzkTJS3jtRe6FdnEcC2w2lubsmXemPPPqjUTHBYIpiVFej/GKppg86D9IhrOZRGlhqU0+iqQgsg1aOlSvF+Wm8HdMXZfjORLFAD2Q9OdPjOB+4m7gY4t5MPWmsWuSxvdtTOQwlcd3f4nk0Yk9aF0pQ5gwU0vBSi+eRlNXp9BS3kr7IyFsH6Vs3i5j7Ja9nQ9pQiaQMBu6ifuJilhwNbBtwfgfKIckqxjuGxZFs6FYxjYtqVB+IMrYBfo62EcocVfpsFoo/OqvLseNLn81A3rtT855oJLugbPus4vB+Sr7bRqY6IVq31ZiO7tVBaOs6DYsiL0RWOq69gTWIy0Qfl/VEmszHwIfIwTAwZV990bN445T95Mlw0utYZ8FA5JlLHZfZBPoj46UocfODUTjC+tT2BN+IpOFGo8Td0aRLRI3ZEeqapHgK8CByjpXntEiVNkWjWQY1KAF0JMk1rA+jGM+aLZGddkVowyIa1csiI7p8w5+G4lzGoaSdX5Y+H1A67zqkR/tZpJEIelCcgtz4E5ow51BOJ9vElvICoqdWr+qphCZ43Ivk9u5H8kBdd1qGosIQexKWid6V/dD348PI9r2NmBjXSeQTM5knz6OH/11o52p6l2MLIs3hbwC7EifHtxGqWlbexj2F2rKD+6PiOSEcR30d3Ua6xucQbxxOQbGbE4D30eJ0RWQYxyyaN0dGwZgqxy6s8TkonvZLgWNdRePCPVNrfH4EklKM5WX0u7xUGmMhJPO5CfHyZGujBNPTaxyfjEJEuoaJLI6qPB5EpGcxkK5G9SSk0nF1l8+WQcb1z4nbJavkaXT/v4MWuOX3xFIZ9F2NsaXx3kOLxCXR/Twksr8+wNdJ5vQbTrrcoOfQM/DV0rhDkQb+2pH9HYve10HVdYtoVC/Fp1eQSyKjuvJG6otikd4o/bcrfShmsl4H2ccKDaDnZ5/3Zv6DqpI9WuecN9EC8TqkG3oN4V6PQejlHLy67oWsQdz27piM55En01Gxhnqx9FORFuvtKIb0z8QZU7vTaVTXu792JNyovgiYGD4lQC/8mDjq2Shh6ySqL0LLuvM/J/w9+ROq30e31GkzgnCj+nbgksA2oK31n0S0AxUKOrQ0djX6Ii3hU9DvFMox6HeanPD8t5HSxHo036iudfwV9ByONapnop2XM6hdvGdTJAWYRb2C2aXxTqsxXj/0/jqNONtlB5IZ1ccStzieCOxN7XtyFZSQullgv8ujBcFVIY2KKKn3b7pvv05AsiogT9/ELseeQp4Z0Aql6xbDE0jQvGjMpnY50lguJ78qRiY9N1PfoK7kXygOLWiFXKLZygdFZDDyHsUsNHtSsudjhM13HHoZT4oYq6j31TERbeYgbdqjqb2rMw295P+P8MS0LYgzKJvFEcQZLzciQ7GW8QK6ttehkIgxEWMMBg6OaJcV7yE746YuP3cg++IB5A3NkwnoGh9K/WqYd6AY9JjiVl15B3m+D64z3iwU8/4FtJsTylo0vt9Gop20UJ5D16HePfksCue4JqL/YPWSInqqP0Z/5O8jb/P5dCYdTkfu/O+gL+9FdBoeM1A81q5opXdF6ZwisifyXq6NFjbTErSZxqeNrDloq+a8TGdnsibmQfwg2i7eO7BdJgL2PZgl0CJm5Yi27yNt6J5CTCn1t5H39eLAdsujrfa3I8bMi1HEqRwdi4ylJNwM/BblKySlD/AtipnnsgBSZQjlEVQoJGmI4RTkoXyQ8Bje/VEcfzPDGa9Hf+cHqC6O0AxeQbsVSVUnJiN7Zyxx8eFTUAGe5xOe/zyS5AtNbu1AMef31DnnAMKdIDPQzth/E5w7G+1crkeYDO6maGfnjaQNimhUgx7cv6pz7JQax96hdjxWkZhGZ/y36f08G9nuAsKN6uEoHKjd4uv7o1CIE4mT0QNtEc7IbEb580xkuyuRjFpoEuOKFMuojgnveQGFfIRwLCphHRJOWJYjLBrfIFxpYjZyZIU+U6YiAz5UOWYRZCxdG9guhpnodwva4s+JgwiXcXsSuBMZf6HsQ3KDuswVKAxkwcB2K1PbqB6AkgJDOYEwtZgPkd11eeA4WxIQZlUUo3oxWrvl09toRqlsk5zYLcPH0QIs5CXYF62s620dFpEBhG2Z90Fe6RXRtuQOpKtq+R49Y0HeldjF2ifI0AmNMYxRUsmLvshzGsqphC+cpiOj64cBbTZASaFFW6TFGC9XEv8MewDFkocWM9qZ5hjVe1EMgxriq79eT7hR/QFxv/cMJBzxrcB29WK/tyA8f2g64YV7QNfqbMISLzehBxrVS6LVjzE9iafQdmo93iO+mMgctO0UmowyhJ5nVH+W1ir1HEpxSppPQDkhjYj1VEPAdmYXiiK/Bgr9CN2RmE64l6rMHYQZ1R3A5wgvfJEnC6DQylDSyhWeTrhRvTn577jdClyWY//NIiRfp0waOdjHCTeq60kfxiSYXk3c8/pj5FAIUdgaHTJAUYxqY3oiGzZhjBh5vKJU5Osp3IB044vCIU0Yo56EXS2aVaAiCTFa0HcQn9AdY7isRrGM6o0IlwGdRGPZvkaMQYu4kIIeC6D8qXpxuGn5Z459N5OYXYQ0IhUxuRyL1jkW813+a0SbMmMJM6qD8nOKqP5hjDHN4gkUU9lutCoZKyti5MruTDHeOxFtKmVeW03MNbstg3HnINm7UD6fwdjtwFTilKJiiVmQz1vj8wVQCF8oab7LbwWe30FAEqWNamNMu/I08pIkUd8xxWJURJs04TK1iqjUI68CHbGsGdHm7ozGfiCijY3q5ExvfEpmxDwva4VJrkH4zurrxEn7lYn5Lic2qh3+YYxpR+5DBRqSyDGZYtGXOB3odUhX1jqUIoXLgLSAQ8lKlzkmZGC5jMZuB6bQvGJ3H0S0qWWUhhaKAim27BHRrkxMXkFiw99GtTGtYd7Sz5AG5w3Ifyptx1lIb7U3yg72Q8bcAtT3roRKYhWJJYh7dx2X9UQakCYZLA9iVKFCJMvqEbNLYBWr5DQznCu0GFI9Yha5wwnX2U9LjzOqp6NKiiYbRlHMEu3tRln0fi20zbUC8rAtQbGUFNqFZ5CCw72tnkgGrIw8r6PRfbUcekE1UqPpDaSRTmxXBhK+kPqQuK3yaryLDL+Qrf6hGY1tikuv+y4XxageD2zc6kn0IsYQV2nMpKc/kgjaBYnGD2npbAxI+vAEpHtb1CqrSVgfFbjZluIlwTWTnuxlbxXzRLTJOk53KmHOnlrJbab30Oucf0UxqtuRwcAqNH7Y9aH+jfcU8GJWkzLR9Ede0B/T3gZPURiPZJcuo+fvgu0AHEWgXmovJrScsYnbwYiR86xHqFENCqFpZhKeaS697rtcVKP6W6hMeR/0Mukq2P8d4CcoWP0IuusV7gUcjRJZfkaxtGe7sg1wDdnE3M0F9gXOzaAvE8f6wIWogIlpDtNQbN9kpIE7CSVDPYF0dSe2amIZMgz4A/DlVk+kYPQ671YTKILxErNLFKqrbXoWvW7XqYhG9dLIu1R+CFwC3AW8ijJFL6YzLutPKCZnGrAscEGXY39A2pihmoTN4DyyS2LpA5yCjLqZGfVpkvN94Bz88E/LE8TJpPVWNgKuo37RhHYly0SpdqEISbkxz8jYYj2mZ9CTw/GqUkSd6uXovqruoFN2ZQW6JzrMR6e00rCKY/0Iq+DULPqRvX7pIKwS0QoOBM7HBrXJlo1Q0Q0b1NWJkfRqd2JCObJOeo1xJM3IeA6mWGSVCFsYimhUPwa82eXfb9JZIvYBuot+T6BT//JRJAre9Vgasf+8mAX8I+M+b8FxZ81mC+C0Vk/C9DqWQWXTB7Z6IgXG3stwYozqrBWKQsN2/E7r/Xzc6glkTRHDP6Yhce4DkdF/Bp2eiSnABsB+6MF6Np0hD9ORxNT+yHA9l+KGQ+wCnIgqXFWLdZtO47nPRtflmVJfpnnMh8KLYhelY5ASxUMoFngytT0yY5Ecn2kPzgYWjmz7LPBH4H7gJXRf1TJMTgcOihyn1cR6t75PXLnxWN5o4liN+AT97iG7H/MCC5Guel2ZmF3jSRmMa4rNlIg2TwG/yHoiDUgcPlVEoxqkZlHrgf88cECNY5NQEmPR+S/wvVZPwkSzN/IohjIO2BUl0hlTyfrAdhHtpgI/QAu1ZhaBaBUvR7Z7Fi042pXXCA8pWpm4EuPV+gnltQzGNcXmlYg28wA3ZjyPzCiKUT0I61RnyZBWT6CHcBCwSYLzTkRe5TL7RIz1IrAhxUycNcXghxFtPkJ66A9mPJci8yHhXleAFWlvo3oc4cnAK5GNUR2jjDQug3FNsZkY0WY5ZLvOynYq2VAUo3p54M5WT8K0HVsgecNGXNLl/1dECbOh7IINalObDpLdi5UcSXsZ1GXGApsHttmU7t/lduMx4OuBbdYjm2u2QUSbxzMY1xSbsRFt+iEHVSFtxiImKhrTLBaJaLN2RJu/093TbUwlwwm/H98Hfp/DXHoCMSFU21IcR1IreCSizVcIKy1ejQ7itNZj5mt6FpPoLjCRlB0znkdm2Kg27UyMUb1841M+xb8i2pj2Iibm9A6Km4wdQozRFvOdWohwT21v4l7CVUCGIeGANGwJLBbY5r/EeTFNzyPmu7wrChsuHM02qi2F1FraIYkphBijOkaZ4c3Gp5g2J0YTuEjqEmmIqZB4N3GqFL9EiU7tyAzgnxHtDkw5bozKzG30wsIgpio3RbRZGPhx1hPJgmYb1c/QC3UJexBPtnoCBaIv8dJlocSWYl2E7AsFmWISU0BoocixOpCcZx7EVO6LkVubhSpOhjISOCmiXSMGkL2ucx5cEdHma0iuNobNiAv9uCxyPNPz+Btx0no/JS4csxFD0jRutlE9DTiuyWMacT4qiGNEjJca4haFG0W0GQz8GVfVaxditJe/SPgzvA/Swv5SxHhJeC+izYaRY50T2e4gYN/ItpUMQKot41GNhKJzI/BuRLtLCd9RWAy4KGKsCSi0ybQH04GLI9r1Q17ukRnNYxlU32QSKZxZrUjaOAHpjO6UcPzlgdWqfP4m7ZH8tQnVPZ1jSLa6m422/M7PcE69gVijOkY79auogMsTCc9fEfgT8LmIsaCgsWamLjHJOsOBPYELE56/cOncHSPGSkpMqNNeqDrpfwPbPQHcTpwn9Bx0/X5BXCnswcB3gB+huGOQUf1bCir1VeITdK2PD2y3MgrJ2IlkKkZLAbcSp+d/Mg79aDfOREX9QnfsPgPch9S1YkKbQPblAehZWh5/X+BnMZ21KhP6CpJvQ+2FqtdV8hAFzgDNkLFUr6h3CO2ZyLEycEwG/cSuRF+IaNOBXjBfpb5qweLo73oI6eI+B6Roa1rDOJTzEJq09zuUfHZVnXMGAt8FjiY8Yawr8yY4J0ZbeHEUI70fchZ0NaiWQYvMWi/MI5E0Zkyy4+HISDwZLWIbOSmGoV2n7YDt+fT1GFbq708Rc2kmZ6BnTKhjYX3gaWSQX0L16zUEvbOPIi5W/lXivNumZzMBPcti4u8XB/6BdnZPRwm59RZl/ZBe+6YocXmtKuf8AN3nwXmAPUFeaHaNz2NiEE3rGYxu6NFIrimUlZBx0CoeQl/Y0G33pZCe8K3I4zMBfWEXRdtXG6EveRYGcStCRuZHf9dR6PcIZQRwCvAoWiz+h2J5q0YA65Z+5o9ofzJwD1pU/YdPJw1PQTkn1Xbl6jEAuBIZSdejqoEfoN2K5ZHO8FeIj+vvSpL7KuluTCUrIxWAaSg8Yf7Sz8DS8UFUL7n+OHABegnGsEKp/bmo/PG40jhlI30x9NJegWRG4kEkN6oHo1jldYCtkk/5f+yF4uofRNchaWjaNLQYuSBizEWR4fIbOr+nn6D38Uro+5/GrjiE5HH5g5BBtC5azITybTTvB9FzJ1QZpZKF0d9yXeLCqw5F74K70XVtxHxI/3szdI+GcjparN5Dsl3vZdDvFbMzNAL4NXp/PkT1nblfAt8Ehkb0D7oHdkK/y2MojGMW+i4PQN/lYei52OgeXRTdH0l3Af9Hn7lz6wtCrLpnTKhLpuxB9Xibu2iPKoxjqe6pXpOe4akehLZFP4/mnFX8UzPZie5lUf9FnOHYLN5ABtp4VMnxWuLKwTbiULQ4WhO9ULPM0ZiGEmsfBf6KklmaySBkIK2HXpQxL61aTEbG9cMoDKEcMnEc8PMMx8maD5Dx9hK6r/7Bp0PwBqDfbyDZsgrwXI1jg5BBPCLjMWNZC9231fg2MkrWRd+ZtBrQZWah98HDKIGzUWGMPqVzYvI98uJGGhvHX0E71OuiBWhWz5zZ6B56EF2/pDJv30XvgnWIKwpWi7eQsXsb3T33g1DI0SZo5yAL5+IcdL/egQztriFc2wI7o/yN4RmMVWYSutYPl8YsL6S2Af6S4ThpeBpYvfyPZy7eM1EjG9XFZyw926geQc9PkKw0qr9NXBZ9q6icf1Y0S6LxJpof6jWC5ty3m6CQB5AHZRzZGVp5cwZwcJXPr0ehTlmyNfUXVqOREZK1MR/D5cBuNY6NpfrzPEsuRe/NRiyFjKklcp1NMl5GjpdGia43AjvkPJek1w9UZjtLY7OSl+m+WBxBvs+lrs8jaM71XggtxMucTHHk8jajlDSb1Kh28RdjwrmWuNhqY+rxIj1rsVaL4C3TBDRKeHsUGbJFCBlKs4XdTCYhubwYGcQsmYoWzTHKMab3cSSKjy4CB4c2sFFtTDizUHZwM17gE5swhikOh9Mc4+IdqscoZ8Ft1A5/iCWJisT1wO603rDuD3y/xXNIyr0oWatVlTk/QjtpY1s0vikec1DIyS2tnggKfwnaibBRbUwcd5B/wuTTKKY3pnKc6Zm8AXyLfGXZJqO43ntz6n8uShzM0lBLKs12BfK+Tstw7FD+ghIfewo3I+NhcpPHfRvdh9akNpV8gr7Hl7RwDjNQ4mxQPlJeRnU5y7II8W31WBAlwGyAkkaykiIbgZII1geWy6jPSrLI5getwjZE2eexFdraleOBE3Pq+w70dyknrJj24XakgZyH9/Al9Fx6HOWl5MVjwN4Z9heid/xnlDj2VIbjJ+Fl5GHbnnDN7VZzO7pmY5s03gOoGl5eCzvT8/kEaUfvTXplllBuQUmKZxCYO5S1UT0v8hS8jaz76ehL+jPiZL5WQ1tT1VgTxbuEGu4dwK5IMPw9pJJwH/A8WqnfgnRPQxmGhP9fR4kE95d+XkTZtGcBy0b0W+tvdBfyZB5C+DVYEPhJaW4TkYTPbeiFm1eltd7KT4Hvkd1W+iykAPFlOj1HRdgGM83lSpQk82qGfV6OksGeL/077/vqYhSOEVNcpZLQIiLPoeTFw8kvzKXMi8A+wGeBa2heAm/WjEOGbp7XbApwIFKTyEORyPQ+zkfOz5uaMNZf0L25PXGa+5kb1b9Ayghl+qBM5+PRBL+TsJ950ArhSWprGS+IKkO9QHJ5s5WRhMtlyDvdUXF8INoGux1tiSUVx98XPcQPQRV+KlkCyco9CxxGsuz+wWiBsnqdc1ZFhvyz6EZIwqZoIXECn/aiD0EvXmuAh3Eh+jtdS7oX6o3ob/oruuuzX0uECL3p8dyDHAunklyDuBr/Rln9u9Fdj/Zpso99ruQyZNyOSdnP0oS/r2Yi7fNh6N30Rso5dOUjZEBviYrTnEvv+I7OQtdsaeBYsrtmryNHzgjkYGp13LvpWbyMkllHo/dhlsm1LyM505GosNN9aTrLWlLvFTpLttbiTORhrjXwYOQ1XT9g3DnII1Ivc35T4AbCqjxNRF7r8TWO90EPiP0C+gS9aPakdmGbocDfCStTPRNdg6vrnLMLkguqXExUsj7SkMyCIURk0BaMq+n07jViOfS33Q79/RotoJ5FOsznU39lvDvxoUQh8w/hmBz6rMbz1L+v82AIzblvLyFZMurCyCjeCTkEGi18J6FnyMXU32LflPjdqQcJ0w//ItL13YZkut8fo2IydyNHxx2kM8b6IhnWHUpzWYPGz8Iy01DIzL/Rdb2LuIXOD8lfGWQs2Ulo9kULsu0Ju2ZzSvO4pzSXu8nGkN4ZOcfyZCzJr9/B6FmRF5ORjnOZIeT7XLqE7s+jZlzvXxP+XVoIyXZuAXwBLQKT8ipyJtyPbM2nkzRqlU71xyQrr/xb5LGtZD704Fw3ZNASc5DRWO3l+3n0pY6phPZKaT5vVjl2ChJij+EPVM8QH4xegqGV1UDXYHtUta+SHVF2fBJvTyNNWJOMBZDneTgKf+qPPEFT0YPrOXpe7KVpPf3R82EEMk4HIifFFORZfB55X4rMcsjDuzQqaAEKE5mGfoeXUThaLcdDFgxEIXnLoe/nIFRpbTYqdDMdvYBfLc3J3lWFeC6Hrtti6J3aHzl1piNVmZforBhrTDNYjM7v8nx05px9hJ4rbwGvoe/y5JgBWmVUP4xispKwL/D7rnNBBvE3QgasYAbyRHT1sg5DVb+qhWUk5eFSv10fEvugWvVpOBI4qcu/B6Cwky1T9DkNebK6JumEFEaYjV501RYRxhhjjDFtRauKv/yC5Kv5s+heQ/5U0hnUIC/5jXQmtQxBW+tpDGpQVnTXsIntgbNT9glSjihXHusAriKdQQ3yttxC53bISHQNkiYznooNamOMMcaYIPpl3N/fkDTbvsgNvyq14686kAF8Dtoer6XyUWYySrAbisr51mIJJNdzPZ1JJPV4Fm1ZrUr9xMSvo63W8Si+td6C5CPgEfQ7rkXtkJiyd/4aYAUah71MRPE/SwOj6pw3HHnn/4XiFxeuc+5sdL1eRsb3VQ3mYIwxxhhjKsg6/KOSJZEywlZpOkHqIcfTKc20MVKpWCpFn28hz/jdpX/3R+odJ5LOg38jsBedVdEWR4mJX67VIAEzUbjJRXQmeG6A9FiTJPzU4nnkKX8uRR/GGGOMMb2WVoV/VPI6UkG4IUUfBwNH0V3rdAwyrN+K7PMdlMl8d5fPZgIno+z0WK5DVYC6lhl+G12D2MS/OcA30eKk6wrofvQ7vBvZ73iU9W+D2hhjjDEmJc0oUz4LSUE9HtH2d0ivuhrjkaJFaGGBGUiWqpZM3qV0Tx5MyiNIh7tatvonyCseU+Hrx8gjXY1x6HcJrbw2GRn6Vp4wxhhjjMmAZhjVoBKT2xEmJH8DqrxUjweRJnBSyrJ7jUqj/oQw7/o4FLtcr5TmB+gavB3Q72lIfrAe91Bdmq8WH6ECN3noFhtjjDHGtCXNMqpBxQi2LP23ETcj4zeJRulVSFC/kepIuTjK9Qn6nAt8i2QC8OWKjkm8vi8Dm5PsGpxFdS3valxKsmvwAVIuSVUxyBhjjDHGdKeZRjUo/GE0qnxYzWB+HxVT2YmwCjvnARsBj9U4/hCqulOv4mIln6D46EOobjDPQLJ6ayNR8aQ8hYrRXEr1sI2JKIb6QMJKXp8HbEj1Sohz0UJlTeCfAX0aY4wxxpgE5K3+UY8BSEd6HmT0fYhifdNWrZofVbLrh+K5y5Wx0tAXVegZWPr/GWius1L227/U7zxokfEhKt4SYkxXYyDSq+6gs4LfJyn7NMYYY4xpOzKrqGiMMcYYY4ypT7PDP4wxxhhjjOl12Kg2xhhjjDEmJTaqjTHGGGOMSYmNamOMMcYYY1Jio9oYY4wxxpiU2Kg2xhhjjDEmJTaqjTHGGGOMSYmNamOMMcYYY1Jio9oYY4wxxpiU2Kg2xhhjjDEmJTaqjTHGGGOMScn/A9M416LzPyW7AAAAAElFTkSuQmCC;" vertex="1" parent="1">
                    <mxGeometry x="88" y="2358" width="296" height="48.99" as="geometry"/>
                </mxCell>
                <mxCell id="38" value="" style="whiteSpace=wrap;html=1;aspect=fixed;sketch=0;" vertex="1" parent="1">
                    <mxGeometry x="40" y="2440" width="40" height="40" as="geometry"/>
                </mxCell>
                <mxCell id="39" value="" style="whiteSpace=wrap;html=1;aspect=fixed;sketch=0;" vertex="1" parent="1">
                    <mxGeometry x="120" y="2440" width="40" height="40" as="geometry"/>
                </mxCell>
                <mxCell id="40" value="" style="whiteSpace=wrap;html=1;aspect=fixed;sketch=0;" vertex="1" parent="1">
                    <mxGeometry x="200" y="2440" width="40" height="40" as="geometry"/>
                </mxCell>
                <mxCell id="41" value="" style="whiteSpace=wrap;html=1;aspect=fixed;sketch=0;" vertex="1" parent="1">
                    <mxGeometry x="280" y="2440" width="40" height="40" as="geometry"/>
                </mxCell>
                <mxCell id="42" value="" style="whiteSpace=wrap;html=1;aspect=fixed;sketch=0;" vertex="1" parent="1">
                    <mxGeometry x="360" y="2440" width="40" height="40" as="geometry"/>
                </mxCell>
            </root>
        </mxGraphModel>
    </diagram>
</mxfile>